Coordinates
version=1
nRows=9
nColumns=36
inDegrees=yes

Units are S.I. units (second, meters, Newtons, ...)
If the header above contains a line with 'inDegrees', this indicates whether rotational values are in degrees (yes) or radians (no).

endheader
time	pelvis_tilt	pelvis_list	pelvis_rotation	pelvis_tx	pelvis_ty	pelvis_tz	hip_flexion_r	hip_adduction_r	hip_rotation_r	knee_angle_r	knee_angle_r_beta	ankle_angle_r	subtalar_angle_r	mtp_angle_r	hip_flexion_l	hip_adduction_l	hip_rotation_l	knee_angle_l	knee_angle_l_beta	ankle_angle_l	subtalar_angle_l	mtp_angle_l	lumbar_extension	lumbar_bending	lumbar_rotation	arm_flex_r	arm_add_r	arm_rot_r	elbow_flex_r	pro_sup_r	arm_flex_l	arm_add_l	arm_rot_l	elbow_flex_l	pro_sup_l
      0.00000000	     -5.77661611	      0.68008275	     12.79223224	     -0.17870126	      0.86904963	     -0.25461548	     36.83119368	     -4.32561850	     -4.34394069	     11.12750505	      0.19421160	      7.58805151	     -9.45233005	     -4.40494210	    -12.72235413	      3.50837487	      8.23249000	     10.81357496	      0.18873249	     19.61299404	      0.79103759	     -4.40494210	     -7.48443869	     -6.95886163	    -11.76054685	     -7.27005755	    -14.04367131	      2.86918586	     36.37069032	    102.27665525	     -2.49513670	    -14.20317186	    -10.64560977	     39.20253798	     99.59153669
      0.01000000	     -5.71694689	      0.51270504	     12.98653114	     -0.16490612	      0.86744360	     -0.25537393	     36.57131507	     -4.03807851	     -4.94153943	     12.14414346	      0.21195529	      7.26994771	     -9.92025076	     -4.43209332	    -13.41804828	      3.00545443	      8.05688751	     11.23478379	      0.19608397	     18.93622813	      1.02479155	     -4.43209332	     -7.16559286	     -6.28636241	    -11.81667189	     -7.29190836	    -14.06848433	      2.71065547	     36.16059237	    102.34760458	     -3.11097153	    -14.18408538	    -10.56040431	     38.78336961	     99.55317991
      0.02000000	     -5.72267120	      0.29775140	     13.14707828	     -0.15089577	      0.86582253	     -0.25604129	     36.37130535	     -3.71894119	     -5.63393081	     13.07463934	      0.22819550	      6.51677061	    -10.31563413	     -4.47113731	    -14.00957332	      2.44341045	      7.75105734	     11.66909207	      0.20366408	     18.11293583	      1.49020994	     -4.47113731	     -6.72083050	     -5.58755486	    -11.84329869	     -7.34937785	    -14.06982002	      2.42553735	     35.96279204	    102.44282320	     -3.80245322	    -14.16965694	    -10.39136642	     38.33873892	     99.51165416
      0.03000000	     -5.74442253	      0.06855604	     13.24900373	     -0.13679373	      0.86431686	     -0.25660569	     36.14666663	     -3.33283229	     -5.88365839	     13.89325200	      0.24248299	      5.79287619	    -10.40612887	     -4.49137240	    -14.53549542	      1.88752443	      7.63512137	     12.20110912	      0.21294953	     17.38595596	      1.86688579	     -4.49137240	     -6.27832584	     -4.84006757	    -11.78164067	     -7.44705484	    -14.12336946	      2.21900088	     35.83829494	    102.48071982	     -4.48049296	    -14.10548317	    -10.27566890	     37.98475294	     99.48114695
      0.04000000	     -5.81446601	     -0.25397838	     13.31547452	     -0.12238330	      0.86307205	     -0.25702268	     35.99505407	     -2.92827335	     -6.65973479	     14.61758093	      0.25512492	      4.13235911	    -10.54626214	     -4.53535485	    -14.80604122	      1.18172148	      6.94809894	     13.01245855	      0.22711025	     16.22754585	      2.62580443	     -4.53535485	     -5.69395301	     -4.03873861	    -11.69566825	     -7.55365659	    -14.13123120	      1.82651132	     35.65192131	    102.57046669	     -5.14893478	    -14.06152309	    -10.00975339	     37.43317864	     99.43169887
      0.05000000	     -5.86110846	     -0.68752988	     13.24618570	     -0.10784732	      0.86208003	     -0.25713682	     35.77851969	     -2.23967692	     -6.59471985	     15.19122358	      0.26513687	      1.91264844	    -11.58322880	     -4.72291308	    -14.87905592	      0.29009944	      5.77064699	     14.18842037	      0.24763465	     15.81400288	      4.75317829	     -4.72291308	     -5.12374930	     -3.05370954	    -11.20277955	     -7.86312426	    -14.12946539	      0.93068236	     35.65857942	    103.03445554	     -5.49541177	    -14.07611236	     -9.01767766	     36.54628736	     99.31111649
      0.06000000	     -5.95957714	     -1.10572254	     13.17365243	     -0.09328141	      0.86141143	     -0.25727192	     35.77198173	     -1.73817327	     -6.99628326	     16.12700870	      0.28146940	      0.33030394	    -11.37106580	     -4.76944217	    -14.80501061	     -0.46198218	      5.34808692	     15.49300934	      0.27040402	     14.37141923	      5.07714072	     -4.76944217	     -4.53329449	     -2.08266651	    -10.98204351	     -7.93974391	    -14.23554915	      0.73320006	     35.54461130	    103.12302390	     -6.14962844	    -13.93556498	     -8.87081868	     36.10746934	     99.25188920
      0.07000000	     -6.04149571	     -1.61428125	     13.05845143	     -0.07877512	      0.86108579	     -0.25733982	     35.84190993	     -1.16135083	     -7.30934547	     17.26225684	      0.30128322	     -1.20980764	    -11.35619098	     -4.80577586	    -14.46224029	     -1.32015709	      4.77111896	     17.22178783	      0.30057690	     12.78356137	      5.45370846	     -4.80577586	     -3.98288067	     -1.00118165	    -10.70088309	     -7.96394499	    -14.40542998	      0.57540948	     35.44319506	    103.18124818	     -6.72240278	    -13.76663890	     -8.70083806	     35.62025012	     99.20749517
      0.08000000	     -6.06794633	     -2.17898874	     12.87550505	     -0.06439596	      0.86111546	     -0.25733209	     35.95910200	     -0.50440820	     -7.42121587	     18.66322908	      0.32573480	     -2.47244097	    -11.57818961	     -4.83656294	    -13.92963868	     -2.22587451	      4.16490611	     19.32747738	      0.33732812	     11.09927566	      5.82801464	     -4.83656294	     -3.54596762	      0.20794836	    -10.33575348	     -7.94222459	    -14.59694706	      0.45634535	     35.38880855	    103.22450089	     -7.19297099	    -13.54118563	     -8.51867599	     35.14360530	     99.17896406
